<svg width="291" height="173" viewBox="0 0 291 173" fill="none" xmlns="http://www.w3.org/2000/svg">
<rect width="291" height="173" fill="#FF6100"/>
<path d="M138.287 74.9333C138.253 75.4984 138.081 76.0803 137.979 76.6437C137.825 77.1745 137.688 77.7213 137.535 78.2683C137.039 79.6531 136.645 80.3375 135.944 81.4839C135.277 82.5281 134.507 83.5708 133.703 84.6136C132.044 86.6839 130.145 88.6683 128.177 90.6693C125.133 93.7307 121.763 96.6735 118.223 99.5136V63.5255C120.053 63.4041 122.055 63.388 124.193 63.5255C126.005 63.6281 127.939 63.8667 129.872 64.3625C131.804 64.8412 133.736 65.6104 135.328 66.8079C136.919 67.9896 137.961 69.6984 138.287 71.7188C138.407 72.7437 138.475 73.8041 138.287 74.9333ZM111.399 104.729H82.868V101.515H113.947V102.832C113.108 103.481 112.253 104.114 111.399 104.729ZM102.624 110.579H82.868V107.364H107.636C105.993 108.475 104.317 109.553 102.624 110.579ZM92.2414 116.429H82.868V113.214H98.2454C96.2614 114.343 94.26 115.436 92.2414 116.429ZM84.1854 119.986C83.74 120.157 83.3134 120.329 82.868 120.483V119.063H86.4947C85.724 119.388 84.9547 119.696 84.1854 119.986ZM75.992 122.639C74.6227 122.98 73.2387 123.236 71.904 123.46C70.552 123.647 69.3387 123.732 68.1067 123.664C66.9094 123.596 65.832 123.339 65.0107 122.945C64.1907 122.519 63.6427 121.953 63.232 121.133C62.4107 119.456 62.5134 116.908 62.992 114.581C64.0014 109.792 66.0547 105.26 68.176 101.291C70.3307 97.3068 72.5374 93.7495 74.692 90.7213C76.2827 88.4803 77.788 86.4615 79.1734 84.7505V121.749C78.1134 122.091 77.0534 122.381 75.992 122.639ZM81.164 47.7041H98.9787V49.9599H81.164V47.7041ZM81.164 43.6667H98.9787V45.9227H81.164V43.6667ZM81.164 39.628H98.9787V41.884H81.164V39.628ZM81.164 35.5893H98.9787V37.8467H81.164V35.5893ZM81.164 31.552H98.9787V33.808H81.164V31.552ZM81.164 27.5133H98.9787V29.7707H81.164V27.5133ZM81.164 23.4747H98.9787V25.732H81.164V23.4747ZM81.164 19.4373H98.9787V21.6947H81.164V19.4373ZM113.947 54.7333V57.9479H82.868V54.7333H113.947ZM113.947 95.664V98.8803H82.868V95.664H113.947ZM113.947 89.8136V93.0292H82.868V89.8136H113.947ZM113.947 83.964V87.1803H82.868V83.964H113.947ZM107.631 78.1145C112.18 78.1145 113.828 78.1145 113.947 78.1145V81.3479H82.868V78.1145C95.2174 78.1145 102.956 78.1145 107.631 78.1145ZM113.947 72.2812V75.4984H82.868V72.2812H113.947ZM113.947 66.4317V69.6479H82.868V66.4317H113.947ZM113.947 63.7984H82.868V60.5828H113.947V63.7984ZM141.948 70.9651C141.605 69.5453 140.989 68.1771 140.168 67.0145C139.347 65.8161 138.253 64.9104 137.176 64.1745C134.952 62.7213 132.591 62.1052 130.401 61.7469C128.212 61.4041 126.143 61.3521 124.209 61.4041C122.021 61.4719 120.019 61.6948 118.223 62.0016V52.3385H101.409V17H79.1734V54.3735V82.8016C77.3254 84.5625 75.1707 86.7188 72.9307 89.3521C70.484 92.2437 67.7987 95.612 65.284 99.5984C64.0187 101.583 62.7707 103.721 61.624 106.029C60.4787 108.339 59.4174 110.819 58.716 113.589C58.3574 114.975 58.0827 116.445 58.0147 118.02C57.9467 119.593 58.1 121.304 58.7854 123.048C59.4694 124.793 60.872 126.419 62.548 127.359C64.224 128.333 66.004 128.744 67.6787 128.881C69.3214 129.053 71.032 128.984 72.588 128.814C74.1454 128.608 75.684 128.385 77.2067 128.06C80.268 127.444 83.2787 126.588 86.2374 125.51C86.46 125.427 86.6827 125.34 86.904 125.255C87.2294 125.152 87.5387 125.015 87.8627 124.896C89.916 124.109 91.9507 123.22 93.952 122.279C96.0907 121.269 98.1934 120.192 100.263 119.063C101.272 118.516 102.283 117.951 103.273 117.369C103.769 117.061 104.284 116.753 104.78 116.429C106.455 115.403 108.115 114.325 109.756 113.214C111.023 112.359 112.288 111.486 113.52 110.579C113.656 110.495 113.811 110.391 113.947 110.271C115.401 109.228 116.837 108.133 118.223 107.021C123.217 103.069 127.853 98.8104 131.992 94.3136C134.028 92.1401 135.859 89.8479 137.535 87.4719C138.355 86.2573 139.16 85.0412 139.844 83.7427C140.528 82.5437 141.263 80.7828 141.555 79.6531C141.64 79.3973 141.588 79.5349 141.605 79.4667L141.623 79.3973L141.657 79.2771L141.708 79.0041L141.827 78.4921C141.896 78.1317 141.999 77.7891 142.033 77.4307C142.119 76.712 142.255 76.0281 142.272 75.2921C142.392 73.8735 142.237 72.3839 141.948 70.9651Z" fill="url(#paint0_linear_1_2)"/>
<path d="M153.914 94.9807V51.3443H171.386C174.596 51.3443 177.273 51.8202 179.418 52.7719C181.563 53.7236 183.175 55.0446 184.255 56.735C185.334 58.4111 185.874 60.3429 185.874 62.5304C185.874 64.235 185.533 65.7335 184.851 67.0261C184.17 68.3046 183.232 69.3557 182.039 70.1796C180.86 70.9892 179.511 71.5645 177.991 71.9054V72.3315C179.653 72.4026 181.208 72.8713 182.657 73.7378C184.12 74.6043 185.306 75.8188 186.215 77.3813C187.124 78.9296 187.579 80.7761 187.579 82.921C187.579 85.2364 187.003 87.3031 185.853 89.1213C184.717 90.9253 183.033 92.3528 180.803 93.404C178.573 94.4551 175.824 94.9807 172.557 94.9807H153.914ZM163.14 87.4381H170.661C173.232 87.4381 175.107 86.948 176.286 85.9679C177.465 84.9736 178.055 83.6526 178.055 82.0048C178.055 80.7975 177.763 79.7321 177.181 78.8088C176.599 77.8855 175.768 77.1611 174.688 76.6355C173.623 76.11 172.351 75.8472 170.874 75.8472H163.14V87.4381ZM163.14 69.6043H169.979C171.244 69.6043 172.366 69.3841 173.346 68.9438C174.34 68.4892 175.121 67.85 175.69 67.0261C176.272 66.2023 176.563 65.2151 176.563 64.0645C176.563 62.4878 176.002 61.2165 174.88 60.2506C173.772 59.2847 172.195 58.8017 170.15 58.8017H163.14V69.6043ZM217.254 63.894C217.083 62.1753 216.352 60.8401 215.059 59.8884C213.767 58.9367 212.012 58.4608 209.796 58.4608C208.291 58.4608 207.019 58.6739 205.983 59.1C204.946 59.5119 204.15 60.0872 203.596 60.8259C203.056 61.5645 202.786 62.4026 202.786 63.3401C202.758 64.1213 202.921 64.8031 203.277 65.3855C203.646 65.9679 204.15 66.4722 204.789 66.8983C205.429 67.3102 206.167 67.6725 207.005 67.985C207.843 68.2832 208.738 68.5389 209.69 68.752L213.61 69.6895C215.514 70.1156 217.261 70.6838 218.852 71.394C220.443 72.1043 221.821 72.9778 222.985 74.0148C224.15 75.0517 225.052 76.2733 225.691 77.6796C226.345 79.0858 226.679 80.698 226.693 82.5162C226.679 85.1867 225.997 87.502 224.647 89.4622C223.312 91.4082 221.38 92.921 218.852 94.0006C216.338 95.0659 213.305 95.5986 209.754 95.5986C206.231 95.5986 203.163 95.0588 200.549 93.9793C197.95 92.8997 195.919 91.3017 194.456 89.1852C193.007 87.0546 192.247 84.4196 192.176 81.2804H201.103C201.203 82.7435 201.622 83.9651 202.36 84.9452C203.113 85.9111 204.115 86.6426 205.365 87.1398C206.629 87.6227 208.056 87.8642 209.647 87.8642C211.21 87.8642 212.566 87.6369 213.717 87.1824C214.882 86.7278 215.784 86.0957 216.423 85.2861C217.062 84.4764 217.382 83.546 217.382 82.4949C217.382 81.5148 217.09 80.6909 216.508 80.0233C215.94 79.3557 215.102 78.7875 213.994 78.3188C212.9 77.85 211.558 77.4239 209.967 77.0403L205.215 75.8472C201.536 74.9523 198.632 73.5531 196.501 71.6497C194.37 69.7463 193.312 67.1824 193.326 63.958C193.312 61.3159 194.015 59.0077 195.436 57.0332C196.87 55.0588 198.838 53.5176 201.338 52.4097C203.838 51.3017 206.679 50.7477 209.86 50.7477C213.099 50.7477 215.926 51.3017 218.34 52.4097C220.769 53.5176 222.659 55.0588 224.008 57.0332C225.358 59.0077 226.054 61.2946 226.096 63.894H217.254Z" fill="#0A325E"/>
<path d="M157.937 116.981H154.07V106.072H157.969C159.066 106.072 160.011 106.29 160.802 106.727C161.594 107.16 162.203 107.783 162.63 108.596C163.059 109.41 163.274 110.383 163.274 111.515C163.274 112.652 163.059 113.628 162.63 114.445C162.203 115.262 161.591 115.889 160.792 116.326C159.996 116.762 159.045 116.981 157.937 116.981ZM156.376 115.004H157.841C158.523 115.004 159.096 114.884 159.561 114.642C160.03 114.397 160.382 114.019 160.616 113.508C160.854 112.993 160.973 112.329 160.973 111.515C160.973 110.709 160.854 110.051 160.616 109.539C160.382 109.028 160.032 108.651 159.567 108.41C159.101 108.169 158.528 108.048 157.846 108.048H156.376V115.004ZM163.684 106.072H166.268L168.755 110.77H168.862L171.349 106.072H173.933L169.954 113.124V116.981H167.663V113.124L163.684 106.072ZM184.317 106.072V116.981H182.325L177.579 110.115H177.499V116.981H175.193V106.072H177.217L181.926 112.932H182.021V106.072H184.317ZM188.103 116.981H185.632L189.398 106.072H192.37L196.131 116.981H193.659L190.926 108.564H190.841L188.103 116.981ZM187.949 112.693H193.787V114.493H187.949V112.693ZM197.444 106.072H200.288L203.292 113.401H203.42L206.424 106.072H209.269V116.981H207.032V109.88H206.941L204.118 116.927H202.594L199.771 109.854H199.681V116.981H197.444V106.072ZM213.476 106.072V116.981H211.169V106.072H213.476ZM224.999 109.891H222.665C222.623 109.589 222.536 109.321 222.404 109.087C222.273 108.849 222.104 108.646 221.898 108.479C221.692 108.312 221.455 108.185 221.185 108.096C220.918 108.007 220.629 107.963 220.316 107.963C219.752 107.963 219.26 108.103 218.841 108.383C218.422 108.66 218.097 109.065 217.866 109.598C217.635 110.127 217.52 110.77 217.52 111.526C217.52 112.304 217.635 112.957 217.866 113.486C218.101 114.015 218.427 114.415 218.846 114.685C219.265 114.955 219.75 115.09 220.3 115.09C220.609 115.09 220.895 115.049 221.158 114.967C221.424 114.886 221.661 114.767 221.866 114.61C222.072 114.451 222.243 114.257 222.378 114.03C222.516 113.802 222.612 113.543 222.665 113.252L224.999 113.263C224.938 113.763 224.787 114.246 224.546 114.712C224.308 115.173 223.987 115.587 223.582 115.953C223.18 116.315 222.701 116.602 222.143 116.816C221.589 117.025 220.963 117.13 220.263 117.13C219.29 117.13 218.42 116.91 217.653 116.469C216.89 116.029 216.286 115.392 215.842 114.557C215.402 113.723 215.181 112.712 215.181 111.526C215.181 110.337 215.405 109.324 215.853 108.49C216.3 107.655 216.907 107.02 217.674 106.583C218.441 106.143 219.304 105.922 220.263 105.922C220.895 105.922 221.481 106.011 222.021 106.189C222.564 106.366 223.045 106.626 223.464 106.966C223.884 107.304 224.224 107.718 224.487 108.208C224.754 108.698 224.924 109.259 224.999 109.891ZM154.07 134.981V124.072H158.437C159.24 124.072 159.909 124.191 160.446 124.428C160.982 124.666 161.385 124.997 161.655 125.419C161.925 125.838 162.06 126.321 162.06 126.868C162.06 127.294 161.974 127.669 161.804 127.992C161.633 128.312 161.399 128.574 161.101 128.78C160.806 128.983 160.469 129.127 160.089 129.212V129.318C160.504 129.336 160.893 129.453 161.255 129.67C161.621 129.887 161.918 130.19 162.145 130.581C162.372 130.968 162.486 131.43 162.486 131.966C162.486 132.545 162.342 133.061 162.054 133.516C161.77 133.967 161.349 134.324 160.792 134.587C160.234 134.849 159.547 134.981 158.73 134.981H154.07ZM156.376 133.095H158.256C158.899 133.095 159.368 132.973 159.663 132.727C159.957 132.479 160.105 132.149 160.105 131.737C160.105 131.435 160.032 131.169 159.886 130.938C159.741 130.707 159.533 130.526 159.263 130.394C158.997 130.263 158.679 130.197 158.31 130.197H156.376V133.095ZM156.376 128.637H158.086C158.402 128.637 158.682 128.582 158.927 128.471C159.176 128.358 159.371 128.198 159.513 127.992C159.659 127.786 159.732 127.539 159.732 127.252C159.732 126.857 159.592 126.54 159.311 126.298C159.034 126.057 158.64 125.936 158.128 125.936H156.376V128.637ZM170.725 124.072H173.031V131.156C173.031 131.952 172.841 132.648 172.461 133.244C172.085 133.841 171.558 134.306 170.879 134.64C170.201 134.97 169.411 135.135 168.509 135.135C167.603 135.135 166.811 134.97 166.133 134.64C165.455 134.306 164.928 133.841 164.551 133.244C164.175 132.648 163.987 131.952 163.987 131.156V124.072H166.293V130.959C166.293 131.375 166.384 131.744 166.565 132.067C166.749 132.39 167.009 132.644 167.342 132.829C167.676 133.013 168.065 133.106 168.509 133.106C168.956 133.106 169.345 133.013 169.675 132.829C170.009 132.644 170.267 132.39 170.448 132.067C170.632 131.744 170.725 131.375 170.725 130.959V124.072ZM177.235 124.072V134.981H174.929V124.072H177.235ZM179.133 134.981V124.072H181.439V133.079H186.116V134.981H179.133ZM191.511 134.981H187.644V124.072H191.543C192.64 124.072 193.585 124.29 194.377 124.727C195.169 125.16 195.778 125.783 196.204 126.596C196.633 127.41 196.848 128.383 196.848 129.515C196.848 130.652 196.633 131.628 196.204 132.445C195.778 133.262 195.165 133.889 194.366 134.326C193.571 134.762 192.619 134.981 191.511 134.981ZM189.95 133.004H191.415C192.097 133.004 192.67 132.884 193.136 132.642C193.604 132.397 193.956 132.019 194.19 131.508C194.428 130.993 194.547 130.329 194.547 129.515C194.547 128.709 194.428 128.051 194.19 127.539C193.956 127.028 193.606 126.651 193.141 126.41C192.676 126.169 192.102 126.048 191.42 126.048H189.95V133.004ZM200.863 124.072V134.981H198.557V124.072H200.863ZM211.886 124.072V134.981H209.893L205.147 128.115H205.067V134.981H202.761V124.072H204.785L209.494 130.932H209.59V124.072H211.886ZM221.025 127.598C220.95 127.339 220.846 127.11 220.711 126.911C220.576 126.708 220.411 126.538 220.215 126.399C220.023 126.257 219.803 126.149 219.555 126.074C219.31 126 219.038 125.963 218.74 125.963C218.182 125.963 217.692 126.101 217.27 126.378C216.851 126.655 216.524 127.058 216.289 127.587C216.055 128.113 215.938 128.756 215.938 129.515C215.938 130.275 216.053 130.922 216.284 131.454C216.515 131.987 216.842 132.394 217.264 132.674C217.687 132.951 218.186 133.09 218.761 133.09C219.283 133.09 219.729 132.997 220.098 132.813C220.471 132.625 220.755 132.36 220.95 132.019C221.149 131.678 221.249 131.275 221.249 130.81L221.717 130.879H218.905V129.143H223.47V130.517C223.47 131.476 223.267 132.3 222.863 132.989C222.458 133.674 221.9 134.203 221.19 134.576C220.48 134.945 219.667 135.13 218.75 135.13C217.728 135.13 216.829 134.904 216.055 134.453C215.281 133.999 214.677 133.354 214.244 132.52C213.814 131.682 213.599 130.687 213.599 129.537C213.599 128.653 213.727 127.864 213.983 127.172C214.242 126.476 214.604 125.886 215.07 125.403C215.535 124.92 216.076 124.553 216.694 124.301C217.312 124.049 217.982 123.922 218.702 123.922C219.32 123.922 219.896 124.013 220.428 124.194C220.961 124.372 221.433 124.624 221.845 124.951C222.261 125.277 222.6 125.666 222.863 126.117C223.125 126.564 223.294 127.058 223.369 127.598H221.025ZM159.987 145.209C159.945 144.779 159.762 144.446 159.439 144.208C159.116 143.97 158.677 143.851 158.123 143.851C157.747 143.851 157.429 143.904 157.17 144.011C156.91 144.114 156.712 144.257 156.573 144.442C156.438 144.627 156.371 144.836 156.371 145.071C156.364 145.266 156.404 145.436 156.493 145.582C156.586 145.727 156.712 145.854 156.871 145.96C157.031 146.063 157.216 146.154 157.425 146.232C157.635 146.306 157.859 146.37 158.097 146.424L159.077 146.658C159.552 146.764 159.989 146.906 160.387 147.084C160.785 147.262 161.129 147.48 161.42 147.739C161.712 147.998 161.937 148.304 162.097 148.655C162.26 149.007 162.344 149.41 162.347 149.865C162.344 150.532 162.173 151.111 161.836 151.601C161.502 152.088 161.019 152.466 160.387 152.736C159.758 153.002 159 153.135 158.112 153.135C157.232 153.135 156.465 153 155.811 152.73C155.161 152.46 154.654 152.061 154.288 151.532C153.926 150.999 153.736 150.34 153.718 149.556H155.95C155.975 149.921 156.079 150.227 156.264 150.472C156.452 150.713 156.703 150.896 157.015 151.02C157.331 151.141 157.688 151.202 158.086 151.202C158.476 151.202 158.816 151.145 159.103 151.031C159.394 150.917 159.62 150.759 159.78 150.557C159.94 150.355 160.019 150.122 160.019 149.859C160.019 149.614 159.947 149.408 159.801 149.241C159.659 149.074 159.449 148.932 159.173 148.815C158.899 148.698 158.563 148.591 158.166 148.496L156.978 148.197C156.058 147.974 155.332 147.624 154.799 147.148C154.267 146.672 154.002 146.031 154.006 145.225C154.002 144.564 154.178 143.987 154.533 143.494C154.892 143 155.383 142.615 156.008 142.338C156.633 142.061 157.344 141.922 158.139 141.922C158.949 141.922 159.655 142.061 160.259 142.338C160.866 142.615 161.339 143 161.676 143.494C162.013 143.987 162.187 144.559 162.198 145.209H159.987ZM173.923 147.526C173.923 148.716 173.698 149.728 173.247 150.562C172.8 151.397 172.189 152.034 171.415 152.475C170.644 152.911 169.778 153.13 168.815 153.13C167.846 153.13 166.976 152.91 166.205 152.469C165.434 152.029 164.825 151.392 164.378 150.557C163.931 149.723 163.707 148.712 163.707 147.526C163.707 146.337 163.931 145.324 164.378 144.49C164.825 143.655 165.434 143.02 166.205 142.583C166.976 142.143 167.846 141.922 168.815 141.922C169.778 141.922 170.644 142.143 171.415 142.583C172.189 143.02 172.8 143.655 173.247 144.49C173.698 145.324 173.923 146.337 173.923 147.526ZM171.585 147.526C171.585 146.756 171.47 146.106 171.239 145.577C171.012 145.047 170.69 144.646 170.275 144.373C169.859 144.099 169.373 143.963 168.815 143.963C168.258 143.963 167.771 144.099 167.356 144.373C166.94 144.646 166.617 145.047 166.386 145.577C166.159 146.106 166.045 146.756 166.045 147.526C166.045 148.297 166.159 148.947 166.386 149.476C166.617 150.005 166.94 150.406 167.356 150.68C167.771 150.953 168.258 151.09 168.815 151.09C169.373 151.09 169.859 150.953 170.275 150.68C170.69 150.406 171.012 150.005 171.239 149.476C171.47 148.947 171.585 148.297 171.585 147.526ZM175.632 152.981V142.072H177.938V151.079H182.615V152.981H175.632ZM190.881 142.072H193.188V149.156C193.188 149.952 192.998 150.648 192.618 151.244C192.241 151.841 191.714 152.306 191.036 152.64C190.357 152.97 189.567 153.135 188.665 153.135C187.76 153.135 186.968 152.97 186.289 152.64C185.611 152.306 185.084 151.841 184.707 151.244C184.331 150.648 184.143 149.952 184.143 149.156V142.072H186.449V148.959C186.449 149.375 186.54 149.744 186.721 150.067C186.906 150.39 187.165 150.644 187.499 150.829C187.832 151.013 188.221 151.106 188.665 151.106C189.113 151.106 189.501 151.013 189.832 150.829C190.165 150.644 190.423 150.39 190.604 150.067C190.789 149.744 190.881 149.375 190.881 148.959V142.072ZM194.67 143.973V142.072H203.629V143.973H200.289V152.981H198.01V143.973H194.67ZM207.411 142.072V152.981H205.105V142.072H207.411ZM219.334 147.526C219.334 148.716 219.108 149.728 218.657 150.562C218.21 151.397 217.599 152.034 216.825 152.475C216.054 152.911 215.188 153.13 214.225 153.13C213.256 153.13 212.386 152.91 211.615 152.469C210.845 152.029 210.236 151.392 209.788 150.557C209.341 149.723 209.117 148.712 209.117 147.526C209.117 146.337 209.341 145.324 209.788 144.49C210.236 143.655 210.845 143.02 211.615 142.583C212.386 142.143 213.256 141.922 214.225 141.922C215.188 141.922 216.054 142.143 216.825 142.583C217.599 143.02 218.21 143.655 218.657 144.49C219.108 145.324 219.334 146.337 219.334 147.526ZM216.995 147.526C216.995 146.756 216.88 146.106 216.649 145.577C216.422 145.047 216.1 144.646 215.685 144.373C215.269 144.099 214.783 143.963 214.225 143.963C213.668 143.963 213.181 144.099 212.766 144.373C212.35 144.646 212.027 145.047 211.796 145.577C211.569 146.106 211.455 146.756 211.455 147.526C211.455 148.297 211.569 148.947 211.796 149.476C212.027 150.005 212.35 150.406 212.766 150.68C213.181 150.953 213.668 151.09 214.225 151.09C214.783 151.09 215.269 150.953 215.685 150.68C216.1 150.406 216.422 150.005 216.649 149.476C216.88 148.947 216.995 148.297 216.995 147.526ZM230.167 142.072V152.981H228.175L223.429 146.115H223.349V152.981H221.042V142.072H223.066L227.775 148.932H227.871V142.072H230.167ZM237.99 145.209C237.948 144.779 237.765 144.446 237.442 144.208C237.119 143.97 236.68 143.851 236.126 143.851C235.75 143.851 235.432 143.904 235.173 144.011C234.913 144.114 234.714 144.257 234.576 144.442C234.441 144.627 234.374 144.836 234.374 145.071C234.366 145.266 234.407 145.436 234.496 145.582C234.588 145.727 234.714 145.854 234.874 145.96C235.034 146.063 235.219 146.154 235.428 146.232C235.638 146.306 235.862 146.37 236.099 146.424L237.08 146.658C237.555 146.764 237.992 146.906 238.39 147.084C238.788 147.262 239.132 147.48 239.423 147.739C239.714 147.998 239.94 148.304 240.1 148.655C240.263 149.007 240.347 149.41 240.35 149.865C240.347 150.532 240.176 151.111 239.839 151.601C239.505 152.088 239.022 152.466 238.39 152.736C237.761 153.002 237.003 153.135 236.115 153.135C235.235 153.135 234.468 153 233.814 152.73C233.164 152.46 232.657 152.061 232.291 151.532C231.929 150.999 231.739 150.34 231.721 149.556H233.953C233.978 149.921 234.082 150.227 234.267 150.472C234.455 150.713 234.706 150.896 235.018 151.02C235.334 151.141 235.691 151.202 236.089 151.202C236.479 151.202 236.819 151.145 237.106 151.031C237.397 150.917 237.623 150.759 237.783 150.557C237.942 150.355 238.022 150.122 238.022 149.859C238.022 149.614 237.95 149.408 237.804 149.241C237.662 149.074 237.452 148.932 237.175 148.815C236.902 148.698 236.566 148.591 236.169 148.496L234.981 148.197C234.061 147.974 233.335 147.624 232.802 147.148C232.27 146.672 232.005 146.031 232.009 145.225C232.005 144.564 232.181 143.987 232.536 143.494C232.895 143 233.386 142.615 234.011 142.338C234.636 142.061 235.347 141.922 236.142 141.922C236.952 141.922 237.658 142.061 238.262 142.338C238.869 142.615 239.342 143 239.679 143.494C240.016 143.987 240.19 144.559 240.201 145.209H237.99Z" fill="#0A325E"/>
<defs>
<linearGradient id="paint0_linear_1_2" x1="60.1214" y1="124.667" x2="142.121" y2="65.1667" gradientUnits="userSpaceOnUse">
<stop stop-color="#56BCE4"/>
<stop offset="1" stop-color="#002B5F"/>
</linearGradient>
</defs>
</svg>
